<?xml version="1.0" encoding="UTF-8" standalone="no"?>
<svg width="372px" height="372px" viewBox="0 0 372 372" version="1.1" xmlns="http://www.w3.org/2000/svg" xmlns:xlink="http://www.w3.org/1999/xlink">
    <!-- Generator: Sketch 39.1 (31720) - http://www.bohemiancoding.com/sketch -->
    <title>ground-track-preview</title>
    <desc>Created with Sketch.</desc>
    <defs>
        <circle id="path-1" cx="160" cy="160" r="160"></circle>
        <path d="M-0.537157985,175 L-0.5,175 L-0.357904475,175 C2.22389412,204.015009 12.4790299,230.822891 28.3642892,253.380433 L22.245786,258.356625 L32.3412648,270.769574 L38.2129896,265.994087 C64.2095939,296.101987 101.137244,316.507448 142.829896,321.044424 C146.089449,323.031251 149.161384,324.76168 152,326.243903 L152,329.5 L155.24221,329.5 L156.330055,332.017203 L160.5,330.215103 L164.669945,332.017203 L165.75779,329.5 L168,329.5 L168,326.760755 C168.154091,326.681954 168.310251,326.601694 168.468458,326.51997 C171.453871,324.977814 174.706038,323.155911 178.170104,321.044424 C219.862756,316.507448 256.790406,296.101987 282.78701,265.994087 L288.658735,270.769574 L298.754214,258.356625 L292.635711,253.380433 C308.52097,230.822891 318.776106,204.015009 321.357904,175 L321.57608,175 L329.57608,175 L329.57608,159 L321.993179,159 C321.686406,125.282839 311.047308,94.0339781 293.088852,68.2663864 L298.754214,63.6587346 L288.658735,51.2457859 L283.300559,55.6036027 C257.347858,25.2500342 220.337735,4.63362387 178.508585,-0.00723028491 C174.903623,-2.19217554 171.523912,-4.06751924 168.430392,-5.64461754 C168.2852,-5.71863755 168.14173,-5.79143736 168,-5.86302016 L168,-8.57608032 L165.790541,-8.57608032 L164.729902,-11.069313 L160.5,-9.26988135 L156.270098,-11.069313 L155.209459,-8.57608032 L152,-8.57608032 L152,-5.35251698 C149.062699,-3.83744939 145.876355,-2.05882129 142.491418,-0.00723064826 C100.662265,4.63362383 63.6521416,25.2500342 37.6994414,55.6036028 L32.3412648,51.245786 L22.245786,63.6587352 L27.9111479,68.2663864 C9.95269211,94.0339782 -0.686406292,125.282839 -0.993178647,159 L-8.5,159 L-8.5,175 L-0.537157985,175 C-0.824061127,169.258433 -1,164.899763 -1,160.5 C-1,159.999465 -0.997722951,159.499462 -0.993178647,159 L-0.5,159 L52.5028257,159 C52.6356234,132.863905 57.3997831,109.264391 66.0330253,88.1156709 C64.5607627,87.573046 63.1048589,87.0179898 61.665297,86.4508145 C52.0824919,82.6752694 43.8922332,78.6100138 37.075296,74.5175888 C34.6485534,73.0607378 32.5574061,71.6953428 30.7992025,70.4541064 C29.6901544,69.6711534 28.9087563,69.0777436 28.4522606,68.7064746 L27.9111479,68.2663864 C30.9669358,63.8818059 34.2346484,59.6559299 37.6994414,55.6036028 L38.5477394,56.2935254 C38.7255282,56.4381214 39.2177942,56.8119584 40.0268851,57.3831511 C41.4655796,58.3988241 43.2259953,59.548271 45.3105758,60.7997112 C51.3831331,64.4452611 58.7825501,68.1179805 67.5303625,71.5645454 C69.2550802,72.2440698 71.0061655,72.905157 72.7836858,73.5471573 C81.1876201,57.4156744 91.9924176,42.8659738 104.797864,29.8530179 C116.204942,18.2610911 128.418122,8.73620475 140.648009,1.1250585 C141.268694,0.738781274 141.883261,0.361369731 142.491418,-0.00723064826 C148.403869,-0.663204334 154.412603,-1 160.5,-1 C166.587397,-1 172.596131,-0.663204329 178.508585,-0.00723028491 C179.116739,0.361369731 179.731306,0.738781274 180.351991,1.1250585 C192.581878,8.73620475 204.795058,18.2610911 216.202136,29.8530179 C229.007583,42.8659742 239.812381,57.4156752 248.216313,73.5471595 C249.993836,72.9051579 251.744922,72.2440703 253.469641,71.5645455 C262.217452,68.1179806 269.616868,64.4452613 275.689425,60.7997114 C277.774005,59.5482712 279.53442,58.3988243 280.973115,57.3831513 C281.782206,56.8119587 282.274471,56.4381217 282.45226,56.2935257 L283.300559,55.6036027 C286.765352,59.6559298 290.033064,63.8818058 293.088852,68.2663864 L292.54774,68.7064743 C292.091244,69.0777433 291.309846,69.6711532 290.200798,70.4541062 C288.442595,71.6953425 286.351448,73.0607375 283.924705,74.5175886 C277.107769,78.6100136 268.917511,82.6752693 259.334707,86.4508144 C257.895144,87.0179902 256.439239,87.5730469 254.966975,88.1156723 C263.600217,109.264392 268.364377,132.863905 268.497148,159 L321.57608,159 L321.993179,159 C321.997723,159.499462 322,159.999465 322,160.5 C322,165.387071 321.78293,170.223443 321.357904,175 L267.988092,175 C266.500632,196.321689 261.806609,215.864922 254.365394,233.678991 C256.042939,234.291565 257.699367,234.920235 259.334707,235.564546 C268.917511,239.340091 277.107769,243.405346 283.924705,247.497771 C286.351448,248.954622 288.442595,250.320017 290.200798,251.561254 C291.309846,252.344207 292.091244,252.937617 292.54774,253.308886 L292.635711,253.380433 C289.559059,257.74937 286.27121,261.95887 282.78701,265.994087 L282.45226,265.721834 C282.274471,265.577238 281.782206,265.203401 280.973115,264.632209 C279.53442,263.616536 277.774005,262.467089 275.689425,261.215648 C269.616868,257.570099 262.217452,253.897379 253.469641,250.450814 C251.511701,249.679402 249.51978,248.931751 247.493779,248.20881 C239.200498,263.8401 228.653925,277.995432 216.220693,290.714148 C204.818303,302.378353 192.609966,311.98195 180.384921,319.672684 C179.637604,320.142819 178.899161,320.600035 178.170104,321.044424 C172.366845,321.675932 166.471268,322 160.5,322 C154.528732,322 148.633155,321.675932 142.829896,321.044424 C142.100839,320.600035 141.362396,320.142819 140.615079,319.672684 C128.390034,311.98195 116.181697,302.378353 104.779307,290.714148 C92.3460755,277.995432 81.7995026,263.8401 73.5062215,248.208811 C71.4802221,248.931751 69.4883019,249.679403 67.5303625,250.450814 C58.7825501,253.897379 51.3831331,257.570099 45.3105758,261.215649 C43.2259953,262.467089 41.4655796,263.616536 40.0268851,264.632209 C39.2177942,265.203401 38.7255282,265.577238 38.5477394,265.721834 L38.2129896,265.994087 C34.7287896,261.95887 31.4409413,257.74937 28.3642892,253.380433 L28.4522606,253.308885 C28.9087563,252.937616 29.6901544,252.344206 30.7992025,251.561253 C32.5574061,250.320017 34.6485534,248.954622 37.075296,247.497771 C43.8922332,243.405346 52.0824919,239.34009 61.665297,235.564545 C63.3006356,234.920236 64.9570632,234.291566 66.6346047,233.678993 C59.1933916,215.864923 54.4993676,196.321689 53.011908,175 L-0.357904475,175 C-0.400285349,174.523711 -0.440598561,174.046828 -0.478835075,173.569359 Z M152,103.411843 C125.58071,102.763596 102.02252,99.0956619 81.2867439,93.1117005 C73.1353347,112.676227 68.6370049,134.585597 68.5030796,159 L152,159 L152,103.411843 Z M168,103.434907 C194.825183,102.855661 218.716213,99.1710606 239.713257,93.111702 C247.864666,112.676228 252.362995,134.585598 252.49692,159 L168,159 L168,103.434907 Z M152,87.4068945 C128.213103,86.7948382 106.9991,83.6158572 88.2963428,78.4652796 C95.759028,64.7375538 105.159942,52.2965623 116.202136,41.0754327 C126.670058,30.4378802 137.894378,21.6841921 149.101991,14.7092471 C150.087141,14.0961489 151.05367,13.508578 152,12.9463065 L152,87.4068945 Z M168,87.4310775 C192.192747,86.883415 213.739209,83.6879265 232.703658,78.4652811 C225.240973,64.7375547 215.840058,52.2965627 204.797864,41.0754327 C194.329942,30.4378802 183.105622,21.6841921 171.898009,14.7092471 C170.563178,13.8785287 169.262535,13.0946757 168,12.3571211 L168,87.4310775 Z M168,308.488735 C169.252247,307.748293 170.541878,306.962126 171.865079,306.129704 C183.077534,299.075987 194.306697,290.242651 204.779307,279.529575 C215.450443,268.613414 224.589313,256.568907 231.928152,243.338033 C213.152413,238.24097 191.863589,235.124494 168,234.584282 L168,308.488735 Z M152,234.608465 C128.541267,235.212078 107.584927,238.312277 89.0718468,243.338035 C96.4106879,256.568908 105.549557,268.613415 116.220693,279.529575 C126.693303,290.242651 137.922466,299.075987 149.134921,306.129704 C150.108632,306.742263 151.064165,307.329775 152,307.89245 L152,234.608465 Z M152,218.603517 C125.848071,219.245203 102.499627,222.845769 81.917145,228.7227 C74.9635903,212.455135 70.5386655,194.577366 69.0549258,175 L152,175 L152,218.603517 Z M168,218.580453 C194.557092,219.15391 218.238386,222.770962 239.082856,228.722698 C246.03641,212.455133 250.461335,194.577366 251.945074,175 L168,175 L168,218.580453 Z" id="path-3"></path>
        <filter x="-50%" y="-50%" width="200%" height="200%" filterUnits="objectBoundingBox" id="filter-4">
            <feGaussianBlur stdDeviation="1.5" in="SourceAlpha" result="shadowBlurInner1"></feGaussianBlur>
            <feOffset dx="0" dy="1" in="shadowBlurInner1" result="shadowOffsetInner1"></feOffset>
            <feComposite in="shadowOffsetInner1" in2="SourceAlpha" operator="arithmetic" k2="-1" k3="1" result="shadowInnerInner1"></feComposite>
            <feColorMatrix values="0 0 0 0 0   0 0 0 0 0   0 0 0 0 0  0 0 0 0.5 0" type="matrix" in="shadowInnerInner1"></feColorMatrix>
        </filter>
        <filter x="-50%" y="-50%" width="200%" height="200%" filterUnits="objectBoundingBox" id="filter-5">
            <feGaussianBlur stdDeviation="1.5" in="SourceAlpha" result="shadowBlurInner1"></feGaussianBlur>
            <feOffset dx="0" dy="1" in="shadowBlurInner1" result="shadowOffsetInner1"></feOffset>
            <feComposite in="shadowOffsetInner1" in2="SourceAlpha" operator="arithmetic" k2="-1" k3="1" result="shadowInnerInner1"></feComposite>
            <feColorMatrix values="0 0 0 0 0   0 0 0 0 0   0 0 0 0 0  0 0 0 0.5 0" type="matrix" in="shadowInnerInner1"></feColorMatrix>
        </filter>
    </defs>
    <g id="Icons" stroke="none" stroke-width="1" fill="none" fill-rule="evenodd">
        <g id="ground-track-preview">
            <g id="Globe" transform="translate(25.000000, 25.000000)">
                <g id="Combined-Shape" transform="translate(1.000000, 1.000000)">
                    <mask id="mask-2" fill="white">
                        <use xlink:href="#path-1"></use>
                    </mask>
                    <g id="Mask"></g>
                    <g mask="url(#mask-2)">
                        <use fill="#323232" fill-rule="evenodd" xlink:href="#path-3"></use>
                        <use fill="black" fill-opacity="1" filter="url(#filter-4)" xlink:href="#path-3"></use>
                        <use fill="black" fill-opacity="1" filter="url(#filter-5)" xlink:href="#path-3"></use>
                    </g>
                </g>
            </g>
        </g>
    </g>
</svg>