<?xml version="1.0" encoding="UTF-8" standalone="no"?>
<svg width="372px" height="372px" viewBox="0 0 372 372" version="1.1" xmlns="http://www.w3.org/2000/svg" xmlns:xlink="http://www.w3.org/1999/xlink">
    <!-- Generator: Sketch 39.1 (31720) - http://www.bohemiancoding.com/sketch -->
    <title>map-preview</title>
    <desc>Created with Sketch.</desc>
    <defs>
        <path d="M62.675,132.003042 C62.675,132.002028 62.675,132.001014 62.675,132 C62.675,93.3094748 79.3415388,58.5068421 105.895239,34.3631435 C105.721487,34.3780166 105.547825,34.3930755 105.374253,34.4083205 C24.4144227,41.5190802 -6.22201634,86.4097033 36.9458509,134.674333 C44.7378755,143.38635 54.4019882,151.612801 65.4846095,159.203305 C63.643587,150.426552 62.6754312,141.329277 62.6750001,132.006229 C62.6750001,132.005167 62.6750001,132.004105 62.6750001,132.003042 Z M304.793659,205.260055 C281.091508,240.676748 240.691576,264 194.8375,264 C136.041539,264 86.2129596,225.653281 69.0554255,172.63436 C50.9536014,161.779079 35.2484052,149.422748 23.2767672,136.037637 C-23.4138905,83.8342861 4.36676269,35.750699 85.3265927,28.6399392 C94.5042489,27.8338591 103.971318,27.5889085 113.612263,27.8642736 C136.021585,10.4032023 164.213148,0 194.8375,0 C267.828833,0 327,59.098413 327,132 C327,156.417581 320.361936,179.286665 308.789864,198.905292 C315.682227,196.180374 321.75785,193.015687 326.974992,189.472394 C321.406544,195.55891 313.975987,200.885122 304.793659,205.260055 Z M304.793659,205.260055 C306.183933,203.182653 307.516758,201.063643 308.789864,198.905292 C295.87078,204.012888 280.082167,207.575394 261.698929,209.190007 C195.352769,215.017238 115.799782,193.66424 65.4846095,159.203305 C66.4428643,163.771616 67.6375941,168.253084 69.0554255,172.63436 C121.552635,204.115826 194.206958,222.972534 254.408421,217.684996 C274.632686,215.908684 291.538404,211.57554 304.793659,205.260055 Z" id="path-1"></path>
        <filter x="-50%" y="-50%" width="200%" height="200%" filterUnits="objectBoundingBox" id="filter-2">
            <feGaussianBlur stdDeviation="1.5" in="SourceAlpha" result="shadowBlurInner1"></feGaussianBlur>
            <feOffset dx="0" dy="1" in="shadowBlurInner1" result="shadowOffsetInner1"></feOffset>
            <feComposite in="shadowOffsetInner1" in2="SourceAlpha" operator="arithmetic" k2="-1" k3="1" result="shadowInnerInner1"></feComposite>
            <feColorMatrix values="0 0 0 0 0   0 0 0 0 0   0 0 0 0 0  0 0 0 0.5 0" type="matrix" in="shadowInnerInner1"></feColorMatrix>
        </filter>
        <filter x="-50%" y="-50%" width="200%" height="200%" filterUnits="objectBoundingBox" id="filter-3">
            <feGaussianBlur stdDeviation="1.5" in="SourceAlpha" result="shadowBlurInner1"></feGaussianBlur>
            <feOffset dx="0" dy="1" in="shadowBlurInner1" result="shadowOffsetInner1"></feOffset>
            <feComposite in="shadowOffsetInner1" in2="SourceAlpha" operator="arithmetic" k2="-1" k3="1" result="shadowInnerInner1"></feComposite>
            <feColorMatrix values="0 0 0 0 0   0 0 0 0 0   0 0 0 0 0  0 0 0 0.5 0" type="matrix" in="shadowInnerInner1"></feColorMatrix>
        </filter>
    </defs>
    <g id="Icons" stroke="none" stroke-width="1" fill="none" fill-rule="evenodd">
        <g id="map-preview">
            <g id="Map" transform="translate(22.000000, 54.000000)">
                <g id="Combined-Shape">
                    <use fill="#323232" fill-rule="evenodd" xlink:href="#path-1"></use>
                    <use fill="black" fill-opacity="1" filter="url(#filter-2)" xlink:href="#path-1"></use>
                    <use fill="black" fill-opacity="1" filter="url(#filter-3)" xlink:href="#path-1"></use>
                </g>
            </g>
        </g>
    </g>
</svg>