<?xml version="1.0" encoding="UTF-8" standalone="no"?>
<svg width="372px" height="372px" viewBox="0 0 372 372" version="1.1" xmlns="http://www.w3.org/2000/svg" xmlns:xlink="http://www.w3.org/1999/xlink">
    <!-- Generator: Sketch 39.1 (31720) - http://www.bohemiancoding.com/sketch -->
    <title>navigation-preview</title>
    <desc>Created with Sketch.</desc>
    <defs>
        <path d="M91.6954839,160.203556 L33.7249396,279.060785 C33.7249396,279.060785 33.5948748,279.096627 33.357361,279.158428 L0.481440319,316.000472 L0.0467208407,315.788445 L8.86151028,267.070864 L9.2148515,267.2432 C9.16693877,267.130981 9.14195801,267.070864 9.14195801,267.070864 L64.9200096,152.708911 C38.5908797,143.604762 23.8433645,133.076297 23.8433645,133.076297 L23.8433645,105.847028 C32.4616567,110.374712 47.4316931,122.008213 75.9492729,130.09557 L115.608289,48.7825363 C112.376071,43.8342387 110.498335,37.9284033 110.498335,31.5859524 C110.498335,14.1415126 124.703106,0 142.22558,0 C159.748053,0 173.952824,14.1415126 173.952824,31.5859524 C173.952824,38.0966543 171.974143,44.1472685 168.58279,49.1743067 L207.985336,129.961498 C242.683573,120.280253 261.250678,105.847028 261.250678,105.847028 L261.250678,133.076297 C261.250678,133.076297 246.516135,144.225998 219.465463,153.499246 L274.858042,267.070864 C274.858042,267.070864 274.833061,267.130981 274.785148,267.2432 L275.13849,267.070864 L283.953279,315.788445 L283.51856,316.000472 L250.642639,279.158428 C250.405125,279.096627 250.27506,279.060785 250.27506,279.060785 L192.61121,160.83237 C178.335335,163.791803 162.019234,165.75142 143.8411,165.75142 C124.404276,165.75142 106.918815,163.511032 91.6954842,160.203549 Z M103.56551,135.866396 L139.095028,63.0200886 C140.124897,63.1205077 141.169209,63.1719047 142.22558,63.1719047 C143.134513,63.1719047 144.034519,63.1338535 144.924079,63.0592637 L180.412459,135.821225 C169.174886,137.501602 156.837825,138.522151 143.447076,138.522151 C128.434661,138.522151 115.217201,137.523809 103.565507,135.866392 Z M142.547021,54.4585386 C155.537821,54.4585386 166.068944,43.9743137 166.068944,31.041367 C166.068944,18.1084202 155.537821,7.6241954 142.547021,7.6241954 C129.556222,7.6241954 119.025099,18.1084202 119.025099,31.041367 C119.025099,43.9743137 129.556222,54.4585386 142.547021,54.4585386 Z" id="path-1"></path>
        <filter x="-50%" y="-50%" width="200%" height="200%" filterUnits="objectBoundingBox" id="filter-2">
            <feGaussianBlur stdDeviation="1.5" in="SourceAlpha" result="shadowBlurInner1"></feGaussianBlur>
            <feOffset dx="0" dy="1" in="shadowBlurInner1" result="shadowOffsetInner1"></feOffset>
            <feComposite in="shadowOffsetInner1" in2="SourceAlpha" operator="arithmetic" k2="-1" k3="1" result="shadowInnerInner1"></feComposite>
            <feColorMatrix values="0 0 0 0 0   0 0 0 0 0   0 0 0 0 0  0 0 0 0.5 0" type="matrix" in="shadowInnerInner1"></feColorMatrix>
        </filter>
        <filter x="-50%" y="-50%" width="200%" height="200%" filterUnits="objectBoundingBox" id="filter-3">
            <feGaussianBlur stdDeviation="1.5" in="SourceAlpha" result="shadowBlurInner1"></feGaussianBlur>
            <feOffset dx="0" dy="1" in="shadowBlurInner1" result="shadowOffsetInner1"></feOffset>
            <feComposite in="shadowOffsetInner1" in2="SourceAlpha" operator="arithmetic" k2="-1" k3="1" result="shadowInnerInner1"></feComposite>
            <feColorMatrix values="0 0 0 0 0   0 0 0 0 0   0 0 0 0 0  0 0 0 0.5 0" type="matrix" in="shadowInnerInner1"></feColorMatrix>
        </filter>
    </defs>
    <g id="Icons" stroke="none" stroke-width="1" fill="none" fill-rule="evenodd">
        <g id="navigation-preview">
            <g id="Compass" transform="translate(45.000000, 28.000000)">
                <g>
                    <use fill="#323232" fill-rule="evenodd" xlink:href="#path-1"></use>
                    <use fill="black" fill-opacity="1" filter="url(#filter-2)" xlink:href="#path-1"></use>
                    <use fill="black" fill-opacity="1" filter="url(#filter-3)" xlink:href="#path-1"></use>
                </g>
            </g>
        </g>
    </g>
</svg>