<?xml version="1.0" encoding="UTF-8" standalone="no"?>
<svg width="372px" height="372px" viewBox="0 0 372 372" version="1.1" xmlns="http://www.w3.org/2000/svg" xmlns:xlink="http://www.w3.org/1999/xlink">
    <!-- Generator: Sketch 39.1 (31720) - http://www.bohemiancoding.com/sketch -->
    <title>settings-preview</title>
    <desc>Created with Sketch.</desc>
    <defs>
        <path d="M107.597161,50.7357256 C116.671323,45.7136883 126.351401,41.6528367 136.5,38.6905661 L136.5,0 L215.5,0 L215.5,38.4026659 C225.772164,41.3191305 235.571797,45.3589266 244.757705,50.380859 L271.812969,23.3255954 L327.674405,79.1870311 L300.906608,105.954828 C306.093758,115.214046 310.277156,125.111559 313.309434,135.5 L351,135.5 L351,214.5 L313.597334,214.5 C310.612487,225.013016 306.451013,235.031083 301.264274,244.402839 L327.674405,270.812969 L271.812969,326.674405 L245.402839,300.264274 C236.031083,305.451013 226.013016,309.612487 215.5,312.597334 L215.5,350 L136.5,350 L136.5,312.309434 C126.111559,309.277156 116.214046,305.093758 106.954828,299.906608 L80.1870311,326.674405 L24.3255954,270.812969 L51.380859,243.757705 C46.3589266,234.571797 42.3191305,224.772164 39.4026659,214.5 L1,214.5 L1,135.5 L39.6905661,135.5 C42.6528367,125.351401 46.7136883,115.671323 51.7357256,106.597161 L24.3255954,79.1870311 L80.1870311,23.3255954 L107.597161,50.7357256 Z M177,240.25 C212.484295,240.25 241.25,211.484295 241.25,176 C241.25,140.515705 212.484295,111.75 177,111.75 C141.515705,111.75 112.75,140.515705 112.75,176 C112.75,211.484295 141.515705,240.25 177,240.25 Z" id="path-1"></path>
        <filter x="-50%" y="-50%" width="200%" height="200%" filterUnits="objectBoundingBox" id="filter-2">
            <feGaussianBlur stdDeviation="1.5" in="SourceAlpha" result="shadowBlurInner1"></feGaussianBlur>
            <feOffset dx="0" dy="1" in="shadowBlurInner1" result="shadowOffsetInner1"></feOffset>
            <feComposite in="shadowOffsetInner1" in2="SourceAlpha" operator="arithmetic" k2="-1" k3="1" result="shadowInnerInner1"></feComposite>
            <feColorMatrix values="0 0 0 0 0   0 0 0 0 0   0 0 0 0 0  0 0 0 0.5 0" type="matrix" in="shadowInnerInner1"></feColorMatrix>
        </filter>
        <filter x="-50%" y="-50%" width="200%" height="200%" filterUnits="objectBoundingBox" id="filter-3">
            <feGaussianBlur stdDeviation="1.5" in="SourceAlpha" result="shadowBlurInner1"></feGaussianBlur>
            <feOffset dx="0" dy="1" in="shadowBlurInner1" result="shadowOffsetInner1"></feOffset>
            <feComposite in="shadowOffsetInner1" in2="SourceAlpha" operator="arithmetic" k2="-1" k3="1" result="shadowInnerInner1"></feComposite>
            <feColorMatrix values="0 0 0 0 0   0 0 0 0 0   0 0 0 0 0  0 0 0 0.5 0" type="matrix" in="shadowInnerInner1"></feColorMatrix>
        </filter>
    </defs>
    <g id="Icons" stroke="none" stroke-width="1" fill="none" fill-rule="evenodd">
        <g id="settings-preview">
            <g id="Gear" transform="translate(10.000000, 11.000000)">
                <g>
                    <use fill="#323232" fill-rule="evenodd" xlink:href="#path-1"></use>
                    <use fill="black" fill-opacity="1" filter="url(#filter-2)" xlink:href="#path-1"></use>
                    <use fill="black" fill-opacity="1" filter="url(#filter-3)" xlink:href="#path-1"></use>
                </g>
            </g>
        </g>
    </g>
</svg>