<?xml version="1.0" encoding="UTF-8" standalone="no"?>
<svg width="372px" height="372px" viewBox="0 0 372 372" version="1.1" xmlns="http://www.w3.org/2000/svg" xmlns:xlink="http://www.w3.org/1999/xlink">
    <!-- Generator: Sketch 39.1 (31720) - http://www.bohemiancoding.com/sketch -->
    <title>staging-analysis-preview</title>
    <desc>Created with Sketch.</desc>
    <defs>
        <path d="M0,9.99970506 C0,4.47702045 4.4746922,0 10.0069463,0 L229.993054,0 C235.519738,0 240,4.48121166 240,9.99970506 L240,307.000295 C240,312.52298 235.525308,317 229.993054,317 L10.0069463,317 C4.48026248,317 0,312.518788 0,307.000295 L0,9.99970506 Z M17.7777778,15.216 L223.492063,15.216 L223.492063,78.616 L17.7777778,78.616 L17.7777778,15.216 Z M17.7777778,98.904 L81.2698413,98.904 L81.2698413,162.304 L17.7777778,162.304 L17.7777778,98.904 Z M88.8888889,98.904 L152.380952,98.904 L152.380952,162.304 L88.8888889,162.304 L88.8888889,98.904 Z M17.7777778,169.912 L81.2698413,169.912 L81.2698413,233.312 L17.7777778,233.312 L17.7777778,169.912 Z M88.8888889,169.912 L152.380952,169.912 L152.380952,233.312 L88.8888889,233.312 L88.8888889,169.912 Z M17.7777778,240.92 L81.2698413,240.92 L81.2698413,304.32 L17.7777778,304.32 L17.7777778,240.92 Z M88.8888889,240.92 L152.380952,240.92 L152.380952,304.32 L88.8888889,304.32 L88.8888889,240.92 Z M160,98.904 L223.492063,98.904 L223.492063,162.304 L160,162.304 L160,98.904 Z M160,169.912 L223.492063,169.912 L223.492063,304.32 L160,304.32 L160,169.912 Z" id="path-1"></path>
        <filter x="-50%" y="-50%" width="200%" height="200%" filterUnits="objectBoundingBox" id="filter-2">
            <feGaussianBlur stdDeviation="1.5" in="SourceAlpha" result="shadowBlurInner1"></feGaussianBlur>
            <feOffset dx="0" dy="1" in="shadowBlurInner1" result="shadowOffsetInner1"></feOffset>
            <feComposite in="shadowOffsetInner1" in2="SourceAlpha" operator="arithmetic" k2="-1" k3="1" result="shadowInnerInner1"></feComposite>
            <feColorMatrix values="0 0 0 0 0   0 0 0 0 0   0 0 0 0 0  0 0 0 0.5 0" type="matrix" in="shadowInnerInner1"></feColorMatrix>
        </filter>
        <filter x="-50%" y="-50%" width="200%" height="200%" filterUnits="objectBoundingBox" id="filter-3">
            <feGaussianBlur stdDeviation="1.5" in="SourceAlpha" result="shadowBlurInner1"></feGaussianBlur>
            <feOffset dx="0" dy="1" in="shadowBlurInner1" result="shadowOffsetInner1"></feOffset>
            <feComposite in="shadowOffsetInner1" in2="SourceAlpha" operator="arithmetic" k2="-1" k3="1" result="shadowInnerInner1"></feComposite>
            <feColorMatrix values="0 0 0 0 0   0 0 0 0 0   0 0 0 0 0  0 0 0 0.5 0" type="matrix" in="shadowInnerInner1"></feColorMatrix>
        </filter>
    </defs>
    <g id="Icons" stroke="none" stroke-width="1" fill="none" fill-rule="evenodd">
        <g id="staging-analysis-preview">
            <g id="Staging-Analysis" transform="translate(67.000000, 28.000000)">
                <g id="Group-2">
                    <g id="Combined-Shape">
                        <use fill="#323232" fill-rule="evenodd" xlink:href="#path-1"></use>
                        <use fill="black" fill-opacity="1" filter="url(#filter-2)" xlink:href="#path-1"></use>
                        <use fill="black" fill-opacity="1" filter="url(#filter-3)" xlink:href="#path-1"></use>
                    </g>
                    <g id="Group" transform="translate(17.777778, 15.216000)"></g>
                </g>
            </g>
        </g>
    </g>
</svg>