<?xml version="1.0" encoding="UTF-8" standalone="no"?>
<svg width="372px" height="372px" viewBox="0 0 372 372" version="1.1" xmlns="http://www.w3.org/2000/svg" xmlns:xlink="http://www.w3.org/1999/xlink">
    <!-- Generator: Sketch 39.1 (31720) - http://www.bohemiancoding.com/sketch -->
    <title>vessel-overview-preview</title>
    <desc>Created with Sketch.</desc>
    <defs>
        <path d="M146.245323,239.272727 L156.047431,239.272727 L156.047431,76.7233202 L96.2424403,5.40068649e-14 L59.8049906,5.40068649e-14 L0,76.7233202 L0,239.272727 L9.79482936,239.272727 C14.7593173,240.345524 23.5322806,241.985829 34.3106522,243.824111 C45.1142522,245.666695 54.8751409,247.313855 61.331314,248.387501 C60.5515809,248.523854 59.696476,249.804732 59.3837251,251.364708 C59.3837251,251.364708 49.5543636,273.784407 47.3069637,284.994257 C44.5659056,298.666434 39.0837896,326.010786 39.0837896,326.010786 C38.7515685,327.667878 39.6018431,329 40.9801569,329 L115.718398,329 C117.086974,329 117.945744,327.661683 117.614765,326.010786 C117.614765,326.010786 111.950083,298.781785 109.185898,284.994257 C106.961625,273.899759 97.3148298,251.364708 97.3148298,251.364708 C96.9826088,249.707616 96.0512441,248.375494 95.2317946,248.375494 L94.7891865,248.375494 C101.239051,247.302697 110.958407,245.662392 121.736779,243.824111 C132.500187,241.988381 141.276932,240.346624 146.245323,239.272727 Z" id="path-1"></path>
        <filter x="-50%" y="-50%" width="200%" height="200%" filterUnits="objectBoundingBox" id="filter-2">
            <feGaussianBlur stdDeviation="1.5" in="SourceAlpha" result="shadowBlurInner1"></feGaussianBlur>
            <feOffset dx="0" dy="1" in="shadowBlurInner1" result="shadowOffsetInner1"></feOffset>
            <feComposite in="shadowOffsetInner1" in2="SourceAlpha" operator="arithmetic" k2="-1" k3="1" result="shadowInnerInner1"></feComposite>
            <feColorMatrix values="0 0 0 0 0   0 0 0 0 0   0 0 0 0 0  0 0 0 0.5 0" type="matrix" in="shadowInnerInner1"></feColorMatrix>
        </filter>
        <filter x="-50%" y="-50%" width="200%" height="200%" filterUnits="objectBoundingBox" id="filter-3">
            <feGaussianBlur stdDeviation="1.5" in="SourceAlpha" result="shadowBlurInner1"></feGaussianBlur>
            <feOffset dx="0" dy="1" in="shadowBlurInner1" result="shadowOffsetInner1"></feOffset>
            <feComposite in="shadowOffsetInner1" in2="SourceAlpha" operator="arithmetic" k2="-1" k3="1" result="shadowInnerInner1"></feComposite>
            <feColorMatrix values="0 0 0 0 0   0 0 0 0 0   0 0 0 0 0  0 0 0 0.5 0" type="matrix" in="shadowInnerInner1"></feColorMatrix>
        </filter>
    </defs>
    <g id="Icons" stroke="none" stroke-width="1" fill="none" fill-rule="evenodd">
        <g id="vessel-overview-preview">
            <g id="Vessel-Overview" transform="translate(188.981832, 176.179946) rotate(117.000000) translate(-188.981832, -176.179946) translate(110.981832, 11.679946)">
                <g id="Combined-Shape">
                    <use fill="#323232" fill-rule="evenodd" xlink:href="#path-1"></use>
                    <use fill="black" fill-opacity="1" filter="url(#filter-2)" xlink:href="#path-1"></use>
                    <use fill="black" fill-opacity="1" filter="url(#filter-3)" xlink:href="#path-1"></use>
                </g>
            </g>
        </g>
    </g>
</svg>