<?xml version="1.0" encoding="UTF-8" standalone="no"?>
<svg width="372px" height="372px" viewBox="0 0 372 372" version="1.1" xmlns="http://www.w3.org/2000/svg" xmlns:xlink="http://www.w3.org/1999/xlink">
    <!-- Generator: Sketch 3.8.2 (29753) - http://www.bohemiancoding.com/sketch -->
    <title>ground-track-preview</title>
    <desc>Created with Sketch.</desc>
    <defs>
        <circle id="path-1" cx="161" cy="161" r="160"></circle>
        <path d="M0.462842015,176 L0.5,176 L0.642095525,176 C3.22389412,205.015009 13.4790299,231.822891 29.3642892,254.380433 L23.245786,259.356625 L33.3412648,271.769574 L39.2129896,266.994087 C65.2095939,297.101987 102.137244,317.507448 143.829896,322.044424 C147.089449,324.031251 150.161384,325.76168 153,327.243903 L153,330.5 L156.24221,330.5 L157.330055,333.017203 L161.5,331.215103 L165.669945,333.017203 L166.75779,330.5 L169,330.5 L169,327.760755 C169.154091,327.681954 169.310251,327.601694 169.468458,327.51997 C172.453871,325.977814 175.706038,324.155911 179.170104,322.044424 C220.862756,317.507448 257.790406,297.101987 283.78701,266.994087 L289.658735,271.769574 L299.754214,259.356625 L293.635711,254.380433 C309.52097,231.822891 319.776106,205.015009 322.357904,176 L322.57608,176 L330.57608,176 L330.57608,160 L322.993179,160 C322.686406,126.282839 312.047308,95.0339781 294.088852,69.2663864 L299.754214,64.6587346 L289.658735,52.2457859 L284.300559,56.6036027 C258.347858,26.2500342 221.337735,5.63362387 179.508585,0.992769715 C175.903623,-1.19217554 172.523912,-3.06751924 169.430392,-4.64461754 C169.2852,-4.71863755 169.14173,-4.79143736 169,-4.86302016 L169,-7.57608032 L166.790541,-7.57608032 L165.729902,-10.069313 L161.5,-8.26988135 L157.270098,-10.069313 L156.209459,-7.57608032 L153,-7.57608032 L153,-4.35251698 C150.062699,-2.83744939 146.876355,-1.05882129 143.491418,0.992769352 C101.662265,5.63362383 64.6521416,26.2500342 38.6994414,56.6036028 L33.3412648,52.245786 L23.245786,64.6587352 L28.9111479,69.2663864 C10.9526921,95.0339782 0.313593708,126.282839 0.00682135255,160 L-7.5,160 L-7.5,176 L0.462842015,176 C0.175938873,170.258433 -8.8817842e-16,165.899763 0,161.5 C0,160.999465 0.00227704876,160.499462 0.00682135255,160 L0.5,160 L53.5028257,160 C53.6356234,133.863905 58.3997831,110.264391 67.0330253,89.1156709 C65.5607627,88.573046 64.1048589,88.0179898 62.665297,87.4508145 C53.0824919,83.6752694 44.8922332,79.6100138 38.075296,75.5175888 C35.6485534,74.0607378 33.5574061,72.6953428 31.7992025,71.4541064 C30.6901544,70.6711534 29.9087563,70.0777436 29.4522606,69.7064746 L28.9111479,69.2663864 C31.9669358,64.8818059 35.2346484,60.6559299 38.6994414,56.6036028 L39.5477394,57.2935254 C39.7255282,57.4381214 40.2177942,57.8119584 41.0268851,58.3831511 C42.4655796,59.3988241 44.2259953,60.548271 46.3105758,61.7997112 C52.3831331,65.4452611 59.7825501,69.1179805 68.5303625,72.5645454 C70.2550802,73.2440698 72.0061655,73.905157 73.7836858,74.5471573 C82.1876201,58.4156744 92.9924176,43.8659738 105.797864,30.8530179 C117.204942,19.2610911 129.418122,9.73620475 141.648009,2.1250585 C142.268694,1.73878127 142.883261,1.36136973 143.491418,0.992769352 C149.403869,0.336795666 155.412603,0 161.5,0 C167.587397,0 173.596131,0.336795671 179.508585,0.992769715 C180.116739,1.36136973 180.731306,1.73878127 181.351991,2.1250585 C193.581878,9.73620475 205.795058,19.2610911 217.202136,30.8530179 C230.007583,43.8659742 240.812381,58.4156752 249.216313,74.5471595 C250.993836,73.9051579 252.744922,73.2440703 254.469641,72.5645455 C263.217452,69.1179806 270.616868,65.4452613 276.689425,61.7997114 C278.774005,60.5482712 280.53442,59.3988243 281.973115,58.3831513 C282.782206,57.8119587 283.274471,57.4381217 283.45226,57.2935257 L284.300559,56.6036027 C287.765352,60.6559298 291.033064,64.8818058 294.088852,69.2663864 L293.54774,69.7064743 C293.091244,70.0777433 292.309846,70.6711532 291.200798,71.4541062 C289.442595,72.6953425 287.351448,74.0607375 284.924705,75.5175886 C278.107769,79.6100136 269.917511,83.6752693 260.334707,87.4508144 C258.895144,88.0179902 257.439239,88.5730469 255.966975,89.1156723 C264.600217,110.264392 269.364377,133.863905 269.497148,160 L322.57608,160 L322.993179,160 C322.997723,160.499462 323,160.999465 323,161.5 C323,166.387071 322.78293,171.223443 322.357904,176 L268.988092,176 C267.500632,197.321689 262.806609,216.864922 255.365394,234.678991 C257.042939,235.291565 258.699367,235.920235 260.334707,236.564546 C269.917511,240.340091 278.107769,244.405346 284.924705,248.497771 C287.351448,249.954622 289.442595,251.320017 291.200798,252.561254 C292.309846,253.344207 293.091244,253.937617 293.54774,254.308886 L293.635711,254.380433 C290.559059,258.74937 287.27121,262.95887 283.78701,266.994087 L283.45226,266.721834 C283.274471,266.577238 282.782206,266.203401 281.973115,265.632209 C280.53442,264.616536 278.774005,263.467089 276.689425,262.215648 C270.616868,258.570099 263.217452,254.897379 254.469641,251.450814 C252.511701,250.679402 250.51978,249.931751 248.493779,249.20881 C240.200498,264.8401 229.653925,278.995432 217.220693,291.714148 C205.818303,303.378353 193.609966,312.98195 181.384921,320.672684 C180.637604,321.142819 179.899161,321.600035 179.170104,322.044424 C173.366845,322.675932 167.471268,323 161.5,323 C155.528732,323 149.633155,322.675932 143.829896,322.044424 C143.100839,321.600035 142.362396,321.142819 141.615079,320.672684 C129.390034,312.98195 117.181697,303.378353 105.779307,291.714148 C93.3460755,278.995432 82.7995026,264.8401 74.5062215,249.208811 C72.4802221,249.931751 70.4883019,250.679403 68.5303625,251.450814 C59.7825501,254.897379 52.3831331,258.570099 46.3105758,262.215649 C44.2259953,263.467089 42.4655796,264.616536 41.0268851,265.632209 C40.2177942,266.203401 39.7255282,266.577238 39.5477394,266.721834 L39.2129896,266.994087 C35.7287896,262.95887 32.4409413,258.74937 29.3642892,254.380433 L29.4522606,254.308885 C29.9087563,253.937616 30.6901544,253.344206 31.7992025,252.561253 C33.5574061,251.320017 35.6485534,249.954622 38.075296,248.497771 C44.8922332,244.405346 53.0824919,240.34009 62.665297,236.564545 C64.3006356,235.920236 65.9570632,235.291566 67.6346047,234.678993 C60.1933916,216.864923 55.4993676,197.321689 54.011908,176 L0.642095525,176 C0.599714651,175.523711 0.559401439,175.046828 0.521164925,174.569359 Z M153,104.411843 C126.58071,103.763596 103.02252,100.095662 82.2867439,94.1117005 C74.1353347,113.676227 69.6370049,135.585597 69.5030796,160 L153,160 L153,104.411843 Z M169,104.434907 C195.825183,103.855661 219.716213,100.171061 240.713257,94.111702 C248.864666,113.676228 253.362995,135.585598 253.49692,160 L169,160 L169,104.434907 Z M153,88.4068945 C129.213103,87.7948382 107.9991,84.6158572 89.2963428,79.4652796 C96.759028,65.7375538 106.159942,53.2965623 117.202136,42.0754327 C127.670058,31.4378802 138.894378,22.6841921 150.101991,15.7092471 C151.087141,15.0961489 152.05367,14.508578 153,13.9463065 L153,88.4068945 Z M169,88.4310775 C193.192747,87.883415 214.739209,84.6879265 233.703658,79.4652811 C226.240973,65.7375547 216.840058,53.2965627 205.797864,42.0754327 C195.329942,31.4378802 184.105622,22.6841921 172.898009,15.7092471 C171.563178,14.8785287 170.262535,14.0946757 169,13.3571211 L169,88.4310775 Z M169,309.488735 C170.252247,308.748293 171.541878,307.962126 172.865079,307.129704 C184.077534,300.075987 195.306697,291.242651 205.779307,280.529575 C216.450443,269.613414 225.589313,257.568907 232.928152,244.338033 C214.152413,239.24097 192.863589,236.124494 169,235.584282 L169,309.488735 Z M153,235.608465 C129.541267,236.212078 108.584927,239.312277 90.0718468,244.338035 C97.4106879,257.568908 106.549557,269.613415 117.220693,280.529575 C127.693303,291.242651 138.922466,300.075987 150.134921,307.129704 C151.108632,307.742263 152.064165,308.329775 153,308.89245 L153,235.608465 Z M153,219.603517 C126.848071,220.245203 103.499627,223.845769 82.917145,229.7227 C75.9635903,213.455135 71.5386655,195.577366 70.0549258,176 L153,176 L153,219.603517 Z M169,219.580453 C195.557092,220.15391 219.238386,223.770962 240.082856,229.722698 C247.03641,213.455133 251.461335,195.577366 252.945074,176 L169,176 L169,219.580453 Z" id="path-3"></path>
        <filter x="-50%" y="-50%" width="200%" height="200%" filterUnits="objectBoundingBox" id="filter-4">
            <feGaussianBlur stdDeviation="1.5" in="SourceAlpha" result="shadowBlurInner1"></feGaussianBlur>
            <feOffset dx="0" dy="1" in="shadowBlurInner1" result="shadowOffsetInner1"></feOffset>
            <feComposite in="shadowOffsetInner1" in2="SourceAlpha" operator="arithmetic" k2="-1" k3="1" result="shadowInnerInner1"></feComposite>
            <feColorMatrix values="0 0 0 0 0   0 0 0 0 0   0 0 0 0 0  0 0 0 0.5 0" type="matrix" in="shadowInnerInner1"></feColorMatrix>
        </filter>
        <filter x="-50%" y="-50%" width="200%" height="200%" filterUnits="objectBoundingBox" id="filter-5">
            <feGaussianBlur stdDeviation="1.5" in="SourceAlpha" result="shadowBlurInner1"></feGaussianBlur>
            <feOffset dx="0" dy="1" in="shadowBlurInner1" result="shadowOffsetInner1"></feOffset>
            <feComposite in="shadowOffsetInner1" in2="SourceAlpha" operator="arithmetic" k2="-1" k3="1" result="shadowInnerInner1"></feComposite>
            <feColorMatrix values="0 0 0 0 0   0 0 0 0 0   0 0 0 0 0  0 0 0 0.5 0" type="matrix" in="shadowInnerInner1"></feColorMatrix>
        </filter>
    </defs>
    <g id="Icons" stroke="none" stroke-width="1" fill="none" fill-rule="evenodd">
        <g id="ground-track-preview">
            <g id="Globe" transform="translate(25.000000, 25.000000)">
                <g id="Combined-Shape">
                    <mask id="mask-2" fill="white">
                        <use xlink:href="#path-1"></use>
                    </mask>
                    <g id="Mask"></g>
                    <g mask="url(#mask-2)">
                        <use fill="#323232" fill-rule="evenodd" xlink:href="#path-3"></use>
                        <use fill="black" fill-opacity="1" filter="url(#filter-4)" xlink:href="#path-3"></use>
                        <use fill="black" fill-opacity="1" filter="url(#filter-5)" xlink:href="#path-3"></use>
                        <use stroke="#000000" stroke-width="0.5" xlink:href="#path-3"></use>
                    </g>
                </g>
            </g>
        </g>
    </g>
</svg>