<?xml version="1.0" encoding="UTF-8" standalone="no"?>
<svg width="372px" height="372px" viewBox="0 0 372 372" version="1.1" xmlns="http://www.w3.org/2000/svg" xmlns:xlink="http://www.w3.org/1999/xlink">
    <!-- Generator: Sketch 3.8.2 (29753) - http://www.bohemiancoding.com/sketch -->
    <title>science-preview</title>
    <desc>Created with Sketch.</desc>
    <defs>
        <path d="M91.3942507,9.81132075 L91.3942507,70.3647996 C87.8005571,71.00535 81.2749261,81.8594785 76.5689955,95.1553734 L2.41030475,304.679532 C-2.44050195,318.384753 4.73660638,329.5 18.4429953,329.5 L215.55777,329.5 C229.25333,329.5 236.442239,318.387498 231.590461,304.679532 L157.43177,95.1553734 C152.726678,81.861848 146.20259,71.0050307 142.606515,70.3647644 L142.606515,9.81132075 L142.613487,9.81132075 C145.178816,9.81132075 147.262175,7.7269106 147.262175,5.15566038 C147.262175,2.58964213 145.180887,0.5 142.613487,0.5 L91.387278,0.5 C88.8219491,0.5 86.7385903,2.58441015 86.7385903,5.15566038 C86.7385903,7.72167863 88.8198787,9.81132075 91.387278,9.81132075 L91.3942507,9.81132075 Z M81,315 C100.882251,315 117,298.882251 117,279 C117,259.117749 100.882251,243 81,243 C61.117749,243 45,259.117749 45,279 C45,298.882251 61.117749,315 81,315 Z M100,145 C109.388841,145 117,137.388841 117,128 C117,118.611159 109.388841,111 100,111 C90.6111593,111 83,118.611159 83,128 C83,137.388841 90.6111593,145 100,145 Z M141,217 C153.702549,217 164,206.702549 164,194 C164,181.297451 153.702549,171 141,171 C128.297451,171 118,181.297451 118,194 C118,206.702549 128.297451,217 141,217 Z" id="path-1"></path>
        <filter x="-50%" y="-50%" width="200%" height="200%" filterUnits="objectBoundingBox" id="filter-2">
            <feGaussianBlur stdDeviation="1.5" in="SourceAlpha" result="shadowBlurInner1"></feGaussianBlur>
            <feOffset dx="0" dy="1" in="shadowBlurInner1" result="shadowOffsetInner1"></feOffset>
            <feComposite in="shadowOffsetInner1" in2="SourceAlpha" operator="arithmetic" k2="-1" k3="1" result="shadowInnerInner1"></feComposite>
            <feColorMatrix values="0 0 0 0 0   0 0 0 0 0   0 0 0 0 0  0 0 0 0.5 0" type="matrix" in="shadowInnerInner1"></feColorMatrix>
        </filter>
        <filter x="-50%" y="-50%" width="200%" height="200%" filterUnits="objectBoundingBox" id="filter-3">
            <feGaussianBlur stdDeviation="1.5" in="SourceAlpha" result="shadowBlurInner1"></feGaussianBlur>
            <feOffset dx="0" dy="1" in="shadowBlurInner1" result="shadowOffsetInner1"></feOffset>
            <feComposite in="shadowOffsetInner1" in2="SourceAlpha" operator="arithmetic" k2="-1" k3="1" result="shadowInnerInner1"></feComposite>
            <feColorMatrix values="0 0 0 0 0   0 0 0 0 0   0 0 0 0 0  0 0 0 0.5 0" type="matrix" in="shadowInnerInner1"></feColorMatrix>
        </filter>
    </defs>
    <g id="Icons" stroke="none" stroke-width="1" fill="none" fill-rule="evenodd">
        <g id="science-preview">
            <g id="Rectangle-22" transform="translate(69.000000, 21.000000)">
                <g>
                    <use fill="#323232" fill-rule="evenodd" xlink:href="#path-1"></use>
                    <use fill="black" fill-opacity="1" filter="url(#filter-2)" xlink:href="#path-1"></use>
                    <use fill="black" fill-opacity="1" filter="url(#filter-3)" xlink:href="#path-1"></use>
                    <use stroke="#000000" stroke-width="0.5445" xlink:href="#path-1"></use>
                </g>
            </g>
        </g>
    </g>
</svg>